<?xml version="1.0" standalone="no"?>
<!DOCTYPE svg PUBLIC "-//W3C//DTD SVG 20010904//EN"
 "http://www.w3.org/TR/2001/REC-SVG-20010904/DTD/svg10.dtd">
<svg version="1.0" xmlns="http://www.w3.org/2000/svg"
 width="512.000000pt" height="512.000000pt" viewBox="0 0 512.000000 512.000000"
 preserveAspectRatio="xMidYMid meet">
<metadata>
Created by potrace 1.11, written by Peter Selinger 2001-2013
</metadata>
<g transform="translate(0.000000,512.000000) scale(0.100000,-0.100000)"
fill="#000000" stroke="none">
<path d="M2369 5116 c-2 -2 -35 -7 -74 -10 -38 -4 -81 -8 -95 -10 -14 -3 -47
-7 -75 -11 -27 -4 -53 -9 -56 -11 -3 -2 -21 -6 -40 -9 -19 -3 -42 -8 -51 -11
-9 -3 -25 -7 -35 -9 -158 -37 -324 -97 -493 -178 -119 -57 -332 -182 -338
-198 -2 -5 -8 -9 -14 -9 -8 0 -103 -69 -144 -105 -7 -5 -36 -30 -65 -55 -99
-83 -250 -240 -321 -331 -12 -17 -35 -45 -50 -62 -15 -18 -28 -35 -28 -39 0
-4 -6 -13 -13 -20 -16 -17 -127 -186 -127 -194 0 -3 -9 -19 -21 -35 -11 -16
-17 -29 -12 -29 4 0 3 -4 -3 -8 -17 -12 -149 -292 -137 -292 3 0 1 -6 -5 -12
-18 -23 -98 -279 -117 -379 -17 -88 -29 -162 -44 -284 -9 -76 -7 -469 3 -550
4 -27 11 -75 17 -105 6 -30 14 -77 19 -105 39 -217 126 -461 248 -694 30 -58
59 -107 63 -109 5 -2 9 -8 9 -13 0 -21 152 -240 202 -291 10 -10 18 -20 18
-23 0 -16 210 -229 305 -310 39 -33 73 -64 77 -70 5 -6 8 -6 8 -1 0 6 6 3 13
-5 40 -49 296 -210 447 -281 142 -67 287 -126 323 -132 6 -1 17 -4 22 -8 16
-9 223 -62 286 -72 19 -3 57 -9 84 -14 28 -5 57 -10 65 -10 8 0 44 -4 80 -9
131 -16 514 -9 630 12 14 3 39 7 55 10 39 6 73 13 110 22 17 3 37 7 45 8 22 3
243 66 255 73 6 4 15 7 20 8 23 5 152 57 173 70 12 8 22 12 22 9 0 -6 227 112
262 136 14 11 31 19 37 19 6 0 11 5 11 10 0 6 4 10 9 10 6 0 31 15 57 33 25
17 53 37 62 42 20 13 51 37 67 52 8 7 18 13 23 13 6 0 12 3 14 8 2 4 32 32 68
62 118 100 220 207 371 387 22 27 147 213 176 263 47 80 103 190 132 260 18
41 36 84 42 95 27 59 91 265 115 370 46 208 59 335 59 575 0 227 -7 315 -41
490 -13 65 -37 162 -56 225 -12 39 -23 73 -24 78 -1 4 -2 8 -4 10 -1 1 -3 9
-5 17 -9 42 -73 198 -123 300 -55 114 -178 322 -194 328 -4 2 -8 8 -8 13 0 5
-17 31 -37 57 -21 27 -49 63 -63 82 -82 109 -257 284 -390 390 -24 19 -49 41
-56 48 -7 6 -17 12 -23 12 -6 0 -11 4 -11 8 0 4 -13 16 -30 25 -16 10 -35 23
-43 30 -12 11 -23 18 -79 50 -13 6 -25 14 -28 17 -15 16 -309 174 -318 171 -1
-1 -19 6 -40 15 -51 22 -256 93 -284 98 -13 3 -23 5 -23 6 0 1 -8 3 -17 6 -10
2 -24 6 -30 7 -10 3 -73 17 -98 22 -3 1 -18 4 -35 8 -16 3 -47 9 -67 12 -21 3
-53 7 -70 10 -18 3 -51 7 -73 11 -46 6 -470 16 -476 10z"/>
</g>
</svg>
